# xmcd
#
# Track frame offsets:
#	150
#	21537
#	28533
#	42820
#	58737
#	72568
#	81518
#	92681
#	105102
#	118980
#	131979
#	145007
#	160085
#	173650
#	186879
#	200684
#	212470
#	225447
#	237065
#	250131
#	263884
#	277040
#	290130
#	303288
# Disc length: 4216 seconds
# Revision: 1
# Processed by: cddbd v1.5.1PL0 Copyright (c) Steve Scherf et al.
#
# Submitted via: libkcddb 0.10
#
DISCID=5f107618
DTITLE=Louis Armstrong - Grooving
DYEAR=1900
DGENRE=
TTITLE0=Jeepers Creepers
TTITLE1=When the Saints go marching in
TTITLE2=Cabaret
TTITLE3=C'est ci bon
TTITLE4=Perdido street blues
TTITLE5=Esquire bounce
TTITLE6=Our Monday date
TTITLE7=Me and brother Bill
TTITLE8=Watcha say
TTITLE9=Long - long ago
TTITLE10=You're just a no account
TTITLE11=New do you call that a buddy
TTITLE12=You won't be satisfied
TTITLE13=Whatta you gonna do
TTITLE14=Cash for your trash
TTITLE15=Coquette
TTITLE16=Sweethearts on parade
TTITLE17=Everybody loves my baby
TTITLE18=Pratt city blues
TTITLE19=Struttin' with some barbecue
TTITLE20=Ev'ntide
TTITLE21=Swing that music
TTITLE22=Coal cart blues
TTITLE23=Grooving
EXTD=
EXTT0=
EXTT1=
EXTT2=
EXTT3=
EXTT4=
EXTT5=
EXTT6=
EXTT7=
EXTT8=
EXTT9=
EXTT10=
EXTT11=
EXTT12=
EXTT13=
EXTT14=
EXTT15=
EXTT16=
EXTT17=
EXTT18=
EXTT19=
EXTT20=
EXTT21=
EXTT22=
EXTT23=
PLAYORDER=
